# xmcd
#
# Track frame offsets: 
#        150
#        17892
#        36216
#        62678
#        77172
#        101861
#        116893
#        135552
#        163125
#        180461
#        200180
#        213015
#        229917
#        253759
#        279318
#
# Disc length: 3909 seconds
#
# Revision: 0
# Processed by: cddbd v1.5.2PL0 Copyright (c) Steve Scherf et al.
# Submitted via: ExactAudioCopy v1.0b1
#
DISCID=db0f430f
DTITLE=Eric Clapton - Clapton
DYEAR=2010
DGENRE=Blues
TTITLE0=Travelin' Alone
TTITLE1=Rocking Chair
TTITLE2=River Runs Deep
TTITLE3=Judgement Day
TTITLE4=How Deep Is The Ocean
TTITLE5=My Very Good Friend The Milkman
TTITLE6=Can't Hold Out Much Longer
TTITLE7=That's No Way To Get Along
TTITLE8=Everything Will Be Alright
TTITLE9=Diamonds Made From Rain
TTITLE10=When Somebody Thinks You're Wonderful
TTITLE11=Hard Times Blues
TTITLE12=Run Back To Your Side
TTITLE13=Autumn Leaves
TTITLE14=I Was Fooled (Bonus Track)
EXTD=
EXTT0=
EXTT1=
EXTT2=
EXTT3=
EXTT4=
EXTT5=
EXTT6=
EXTT7=
EXTT8=
EXTT9=
EXTT10=
EXTT11=
EXTT12=
EXTT13=
EXTT14=
PLAYORDER=
